<?xml version="1.0" encoding="UTF-8"?>
<svg xmlns="http://www.w3.org/2000/svg" xmlns:xlink="http://www.w3.org/1999/xlink" width="1920" height="1080" viewBox="0 0 1920 1080">
<defs>
<g>
<g id="glyph-0-0">
<path d="M 4.0625 -1.5625 C 4.0625 -1.683594 4.054688 -1.839844 4.035156 -2.03125 L 4.53125 -2.03125 C 4.515625 -1.839844 4.503906 -1.683594 4.503906 -1.5625 C 5.476562 -1.5625 6.101562 -1.570312 6.378906 -1.589844 L 6.378906 -1.121094 C 6.066406 -1.136719 5.582031 -1.144531 4.921875 -1.144531 C 5.25 -0.609375 5.753906 -0.25 6.433594 -0.078125 C 6.257812 0.078125 6.128906 0.242188 6.042969 0.417969 C 5.277344 0.0507812 4.765625 -0.460938 4.503906 -1.121094 C 4.503906 -0.234375 4.515625 0.355469 4.53125 0.652344 L 4.035156 0.652344 C 4.054688 0.339844 4.0625 -0.234375 4.0625 -1.066406 C 3.714844 -0.460938 3.210938 0.0703125 2.550781 0.519531 C 2.429688 0.363281 2.28125 0.226562 2.109375 0.105469 C 2.734375 -0.171875 3.21875 -0.589844 3.566406 -1.144531 C 2.976562 -1.144531 2.550781 -1.128906 2.292969 -1.09375 L 2.292969 -1.589844 C 2.570312 -1.570312 3.160156 -1.5625 4.0625 -1.5625 M 1.25 -4.0625 C 1.25 -4.757812 1.242188 -5.207031 1.222656 -5.417969 L 1.746094 -5.417969 C 1.691406 -5.191406 1.675781 -4.738281 1.691406 -4.0625 C 1.882812 -4.0625 2.109375 -4.070312 2.371094 -4.089844 L 2.371094 -3.621094 C 2.09375 -3.636719 1.867188 -3.644531 1.691406 -3.644531 L 1.691406 -2.527344 C 1.882812 -2.59375 2.09375 -2.683594 2.316406 -2.785156 C 2.316406 -2.59375 2.328125 -2.449219 2.34375 -2.34375 C 2.101562 -2.222656 1.882812 -2.125 1.691406 -2.058594 L 1.691406 -0.183594 C 1.691406 0.128906 1.617188 0.320312 1.472656 0.390625 C 1.324219 0.460938 1.085938 0.53125 0.753906 0.597656 C 0.703125 0.375 0.625 0.171875 0.519531 0 C 0.796875 0 0.988281 -0.0078125 1.09375 -0.0273438 C 1.199219 -0.0429688 1.25 -0.128906 1.25 -0.285156 L 1.25 -1.875 C 1.042969 -1.804688 0.78125 -1.667969 0.46875 -1.457031 C 0.398438 -1.667969 0.328125 -1.859375 0.261719 -2.03125 C 0.46875 -2.066406 0.796875 -2.171875 1.25 -2.34375 L 1.25 -3.644531 C 0.921875 -3.644531 0.625 -3.636719 0.363281 -3.621094 L 0.363281 -4.089844 C 0.625 -4.070312 0.921875 -4.0625 1.25 -4.0625 M 5.46875 -5.3125 C 5.453125 -5.085938 5.441406 -4.859375 5.441406 -4.636719 C 5.441406 -4.410156 5.453125 -4.175781 5.46875 -3.933594 L 3.074219 -3.933594 C 3.089844 -4.191406 3.097656 -4.425781 3.097656 -4.636719 C 3.097656 -4.859375 3.089844 -5.085938 3.074219 -5.3125 L 5.46875 -5.3125 M 6.144531 -3.488281 C 6.128906 -3.265625 6.121094 -3.03125 6.121094 -2.785156 C 6.121094 -2.5625 6.128906 -2.328125 6.144531 -2.082031 L 4.480469 -2.082031 C 4.496094 -2.328125 4.503906 -2.5625 4.503906 -2.785156 C 4.503906 -3.03125 4.496094 -3.265625 4.480469 -3.488281 L 6.144531 -3.488281 M 2.472656 -2.082031 C 2.492188 -2.328125 2.5 -2.5625 2.5 -2.785156 C 2.5 -3.03125 2.492188 -3.265625 2.472656 -3.488281 L 4.0625 -3.488281 C 4.046875 -3.265625 4.035156 -3.03125 4.035156 -2.785156 C 4.035156 -2.5625 4.046875 -2.328125 4.0625 -2.082031 L 2.472656 -2.082031 M 5 -4.324219 L 5 -4.949219 L 3.515625 -4.949219 L 3.515625 -4.324219 L 5 -4.324219 M 5.703125 -2.472656 L 5.703125 -3.097656 L 4.894531 -3.097656 L 4.894531 -2.472656 L 5.703125 -2.472656 M 3.621094 -2.472656 L 3.621094 -3.097656 L 2.890625 -3.097656 L 2.890625 -2.472656 Z "/>
</g>
<g id="glyph-0-1">
<path d="M 4.246094 -5.261719 C 4.070312 -5.121094 3.878906 -4.792969 3.671875 -4.269531 L 5.390625 -4.269531 C 5.773438 -4.269531 6.078125 -4.28125 6.300781 -4.296875 L 6.300781 -3.828125 C 6.078125 -3.84375 5.773438 -3.855469 5.390625 -3.855469 L 4.191406 -3.855469 L 4.191406 -2.839844 L 5.261719 -2.839844 C 5.554688 -2.839844 5.796875 -2.847656 5.988281 -2.863281 L 5.988281 -2.371094 C 5.765625 -2.386719 5.519531 -2.394531 5.261719 -2.394531 L 4.191406 -2.394531 L 4.191406 -1.222656 L 5.3125 -1.222656 C 5.660156 -1.222656 5.945312 -1.234375 6.171875 -1.25 L 6.171875 -0.753906 C 5.945312 -0.773438 5.667969 -0.78125 5.339844 -0.78125 L 4.191406 -0.78125 L 4.191406 -0.285156 C 4.191406 0.199219 4.203125 0.53125 4.21875 0.703125 L 3.671875 0.703125 C 3.6875 0.511719 3.699219 0.25 3.699219 -0.078125 L 3.699219 -3.855469 L 3.4375 -3.855469 C 3.175781 -3.402344 2.925781 -3.011719 2.683594 -2.683594 C 2.492188 -2.855469 2.328125 -2.96875 2.1875 -3.019531 C 2.429688 -3.265625 2.683594 -3.609375 2.941406 -4.0625 C 3.203125 -4.515625 3.410156 -5 3.566406 -5.519531 C 3.828125 -5.398438 4.054688 -5.3125 4.246094 -5.261719 M 2.421875 -5.15625 C 2.265625 -5.035156 2.066406 -4.660156 1.824219 -4.035156 L 1.824219 -0.703125 C 1.824219 -0.148438 1.832031 0.296875 1.847656 0.625 L 1.25 0.625 C 1.265625 0.3125 1.277344 -0.121094 1.277344 -0.675781 L 1.277344 -3.125 C 1.03125 -2.726562 0.796875 -2.386719 0.574219 -2.109375 C 0.433594 -2.316406 0.3125 -2.464844 0.207031 -2.550781 C 0.433594 -2.796875 0.707031 -3.199219 1.027344 -3.761719 C 1.351562 -4.328125 1.589844 -4.90625 1.746094 -5.496094 C 1.9375 -5.375 2.160156 -5.261719 2.421875 -5.15625 Z "/>
</g>
<g id="glyph-0-2">
<path d="M 2.058594 -4.949219 C 2.300781 -4.949219 2.5625 -4.957031 2.839844 -4.972656 L 2.839844 -4.53125 C 2.542969 -4.546875 2.328125 -4.558594 2.1875 -4.558594 L 1.796875 -4.558594 C 1.726562 -4.140625 1.613281 -3.679688 1.457031 -3.175781 L 2.707031 -3.175781 C 2.691406 -2.882812 2.683594 -2.621094 2.683594 -2.394531 L 2.683594 -1.144531 C 2.683594 -0.921875 2.691406 -0.589844 2.707031 -0.15625 L 2.238281 -0.15625 L 2.238281 -0.625 L 1.457031 -0.625 L 1.457031 0.128906 L 0.964844 0.128906 C 0.980469 -0.304688 0.988281 -0.652344 0.988281 -0.910156 L 0.988281 -2.136719 C 0.867188 -1.910156 0.730469 -1.65625 0.574219 -1.378906 C 0.46875 -1.519531 0.347656 -1.640625 0.207031 -1.746094 C 0.519531 -2.160156 0.773438 -2.644531 0.964844 -3.191406 C 1.15625 -3.738281 1.265625 -4.191406 1.300781 -4.558594 C 0.988281 -4.558594 0.675781 -4.546875 0.363281 -4.53125 L 0.363281 -4.972656 C 0.675781 -4.957031 0.945312 -4.949219 1.171875 -4.949219 L 2.058594 -4.949219 M 4.921875 -2.527344 L 5.183594 -4.6875 L 3.984375 -4.6875 C 3.6875 -4.6875 3.386719 -4.679688 3.074219 -4.660156 L 3.074219 -5.128906 C 3.386719 -5.09375 3.6875 -5.078125 3.984375 -5.078125 L 5.730469 -5.078125 C 5.640625 -4.609375 5.53125 -3.757812 5.390625 -2.527344 L 6.222656 -2.527344 C 6.1875 -2.335938 6.160156 -2.015625 6.132812 -1.5625 C 6.105469 -1.109375 6.058594 -0.695312 5.988281 -0.3125 C 5.921875 0.0703125 5.804688 0.316406 5.636719 0.429688 C 5.472656 0.542969 5.148438 0.617188 4.660156 0.652344 C 4.644531 0.460938 4.574219 0.269531 4.453125 0.078125 C 4.90625 0.09375 5.191406 0.078125 5.3125 0.0273438 C 5.433594 -0.0273438 5.519531 -0.28125 5.574219 -0.742188 C 5.625 -1.203125 5.660156 -1.65625 5.675781 -2.109375 L 3.253906 -2.109375 C 3.308594 -2.492188 3.355469 -2.867188 3.398438 -3.242188 C 3.441406 -3.617188 3.472656 -3.976562 3.488281 -4.324219 L 4.0625 -4.21875 C 3.992188 -4.046875 3.9375 -3.804688 3.894531 -3.503906 C 3.851562 -3.199219 3.8125 -2.875 3.777344 -2.527344 L 4.921875 -2.527344 M 2.238281 -1.042969 L 2.238281 -2.761719 L 1.457031 -2.761719 L 1.457031 -1.042969 L 2.238281 -1.042969 M 4.503906 -1.378906 C 4.714844 -1.378906 5.042969 -1.390625 5.496094 -1.40625 L 5.496094 -0.9375 C 5.027344 -0.953125 4.636719 -0.964844 4.324219 -0.964844 L 3.644531 -0.964844 C 3.453125 -0.964844 3.21875 -0.953125 2.941406 -0.9375 L 2.941406 -1.40625 C 3.132812 -1.390625 3.367188 -1.378906 3.644531 -1.378906 Z "/>
</g>
</g>
</defs>
<g fill="rgb(100%, 100%, 100%)" fill-opacity="1">
<use xlink:href="#glyph-0-0" x="30" y="25.728516"/>
<use xlink:href="#glyph-0-1" x="37" y="25.728516"/>
<use xlink:href="#glyph-0-2" x="44" y="25.728516"/>
</g>
</svg>
